<svg width="116" height="24" viewBox="0 0 116 24" fill="none" xmlns="http://www.w3.org/2000/svg">
<g id="vio.com/full_width_white" clip-path="url(#clip0_802_232)">
<path id="Vector" d="M52.6461 20.929C52.6461 21.0944 52.5128 21.2284 52.3483 21.2284H49.5752C49.4107 21.2284 49.2774 21.0944 49.2774 20.929V8.37645C49.2774 8.21145 49.4102 8.07756 49.5743 8.07708L52.3474 8.06886C52.5123 8.06838 52.6461 8.20255 52.6461 8.36824V20.929Z" fill="#160333"/>
<path id="Vector_2" d="M39.2255 17.0103L34.3376 3.05484C34.2956 2.93513 34.1833 2.85507 34.0573 2.85507H30.8091C30.6022 2.85507 30.4586 3.06274 30.5303 3.25823L37.0518 21.0328C37.095 21.1504 37.2062 21.2284 37.3306 21.2284H40.2499C40.3352 21.2284 40.415 21.2033 40.4812 21.149C41.3391 20.4459 47.4403 15.0316 47.5428 3.15857C47.5443 2.99324 47.4111 2.85507 47.2469 2.85507H44.0848C43.9207 2.85507 43.7877 2.99343 43.7863 3.15876C43.7001 13.4969 39.2255 17.0103 39.2255 17.0103Z" fill="#160333"/>
<path id="Vector_3" fill-rule="evenodd" clip-rule="evenodd" d="M61.0017 8.20004C57.2148 8.20004 54.3553 10.9903 54.3553 14.8813C54.3553 18.7466 57.2148 21.5625 61.0017 21.5625C64.7885 21.5625 67.648 18.7466 67.648 14.8813C67.648 10.9903 64.7885 8.20004 61.0017 8.20004ZM64.3248 14.8813C64.3248 16.7262 62.837 18.2219 61.0017 18.2219C59.1663 18.2219 57.6785 16.7262 57.6785 14.8813C57.6785 13.0363 59.1663 11.5407 61.0017 11.5407C62.837 11.5407 64.3248 13.0363 64.3248 14.8813Z" fill="#160333"/>
<path id="Vector_4" d="M79.7003 12.7483C80.8662 12.7483 81.7821 13.2836 82.1072 14.1251C82.1608 14.264 82.3132 14.3439 82.4554 14.2964L84.6865 13.5519C84.8173 13.5083 84.8929 13.3721 84.8523 13.2414C84.2919 11.4366 82.5718 9.70332 79.6316 9.70332C76.359 9.70332 73.7958 12.1797 73.7958 15.6329C73.7958 19.0634 76.4048 21.5625 79.7232 21.5625C82.5946 21.5625 84.3323 19.8119 84.9163 18.0273C84.9594 17.8956 84.8835 17.757 84.751 17.7131L82.5701 16.9915C82.4349 16.9467 82.2907 17.017 82.2287 17.1426L82.2232 17.1538L82.221 17.1582L82.2196 17.1609L82.2186 17.1628C82.2153 17.1692 82.2119 17.1754 82.2081 17.1815C81.7595 17.899 80.892 18.5402 79.7232 18.5402C78.5442 18.5402 76.8396 17.6549 76.8396 15.6329C76.8396 13.6109 78.5344 12.7483 79.7003 12.7483Z" fill="#160333"/>
<path id="Vector_5" d="M101.584 21.3119C101.73 21.3119 101.848 21.1931 101.848 21.0464V14.8714C101.848 13.6326 102.627 12.6461 103.955 12.6461C105.329 12.6461 105.947 13.5638 105.947 14.7796V21.0464C105.947 21.193 106.065 21.3119 106.211 21.3119H108.706C108.852 21.3119 108.97 21.1931 108.97 21.0464V14.8714C108.97 13.6555 109.749 12.6461 111.054 12.6461C112.451 12.6461 113.046 13.5638 113.046 14.7796V21.0464C113.046 21.193 113.164 21.3119 113.31 21.3119H115.736C115.882 21.3119 116 21.1931 116 21.0464V14.1602C116 11.1321 114.008 9.87035 111.924 9.87035C110.435 9.87035 109.245 10.375 108.352 11.7515C107.779 10.5356 106.543 9.87035 105.008 9.87035C103.772 9.87035 102.329 10.4668 101.711 11.5679V10.457C101.711 10.3104 101.593 10.1915 101.447 10.1915H99.0668C98.9209 10.1915 98.8026 10.3104 98.8026 10.457V21.0464C98.8026 21.1931 98.9209 21.3119 99.0668 21.3119H101.584Z" fill="#160333"/>
<path id="Vector_6" fill-rule="evenodd" clip-rule="evenodd" d="M91.7409 9.70332C88.3801 9.70332 85.8423 12.1797 85.8423 15.6329C85.8423 19.0634 88.3801 21.5625 91.7409 21.5625C95.1018 21.5625 97.6395 19.0634 97.6395 15.6329C97.6395 12.1797 95.1018 9.70332 91.7409 9.70332ZM94.6884 15.6329C94.6884 17.2472 93.3865 18.5559 91.7806 18.5559C90.1747 18.5559 88.8728 17.2472 88.8728 15.6329C88.8728 14.0185 90.1747 12.7099 91.7806 12.7099C93.3865 12.7099 94.6884 14.0185 94.6884 15.6329Z" fill="#160333"/>
<path id="Vector_7" d="M68.4788 19.3076C68.4788 20.4547 69.4094 21.3954 70.5444 21.3954C71.7021 21.3954 72.6327 20.4547 72.6327 19.3076C72.6327 18.1604 71.7021 17.2197 70.5444 17.2197C69.4094 17.2197 68.4788 18.1604 68.4788 19.3076Z" fill="#160333"/>
<path id="Vector_8" d="M50.9777 6.6278C49.837 6.6278 48.8991 5.68243 48.8991 4.5582C48.8991 3.38287 49.837 2.4375 50.9777 2.4375C52.1437 2.4375 53.0563 3.38287 53.0563 4.5582C53.0563 5.68243 52.1437 6.6278 50.9777 6.6278Z" fill="#160333"/>
<path id="Vector_9" d="M26.2895 0C27.6758 0 28.5422 1.51344 27.849 2.72416L23.6748 10.0154C23.1992 10.846 22.3204 11.3576 21.3694 11.3576H14.94C13.7346 11.3576 12.9812 10.0416 13.5839 8.98881L17.9616 1.34228C18.4371 0.511669 19.3159 0 20.267 0H26.2895Z" fill="#FF3366"/>
<path id="Vector_10" d="M13.2621 0C14.6484 0 15.5148 1.51344 14.8216 2.72416L9.09256 12.7316C8.39956 13.9426 6.66658 13.9427 5.97341 12.7319L0.243962 2.72416C-0.449187 1.51344 0.417207 0 1.80346 0H13.2621Z" fill="#FFC400"/>
<path id="Vector_11" d="M19.2686 18.7097C19.2686 21.6314 16.92 24 14.0229 24C11.1258 24 8.77719 21.6314 8.77719 18.7097C8.77719 15.7879 11.1258 13.4193 14.0229 13.4193C16.92 13.4193 19.2686 15.7879 19.2686 18.7097Z" fill="#3C69F5"/>
</g>
<defs>
<clipPath id="clip0_802_232">
<rect width="116" height="24" fill="white"/>
</clipPath>
</defs>
</svg>
